<svg xmlns="http://www.w3.org/2000/svg" width="324" height="310" viewBox="0 0 324 310">
  <g id="Group_1" data-name="Group 1" transform="translate(-798 -386)">
    <rect id="Rectangle_4" data-name="Rectangle 4" width="324" height="310" transform="translate(798 386)" fill="none"/>
    <g id="medical_icons" transform="translate(815 408.018)">
      <g id="Group_11" data-name="Group 11" transform="translate(0 236.612) rotate(-1)">
        <path id="Path_79" data-name="Path 79" d="M49.113,16.81,40.016,3.3a7.459,7.459,0,0,0-6.2-3.3q-.177,0-.354.008C33.344,0,33.225,0,33.107,0a7.458,7.458,0,0,0-6.2,3.3L24.645,6.658a7.442,7.442,0,0,0-3.18-4.893l-.731-.492A7.464,7.464,0,0,0,10.371,3.3l-9.1,13.51A7.466,7.466,0,0,0,3.3,27.173l.731.492a7.464,7.464,0,0,0,10.363-2.024l2.263-3.361a7.442,7.442,0,0,0,3.18,4.893l.731.492a7.464,7.464,0,0,0,10.363-2.024l2.534-3.764L36,25.641a7.464,7.464,0,0,0,10.363,2.024l.731-.492A7.466,7.466,0,0,0,49.113,16.81ZM12.446,24.332A5.119,5.119,0,0,1,5.337,25.72l-.731-.492A5.127,5.127,0,0,1,3.219,18.12l9.1-13.513a5.119,5.119,0,0,1,7.108-1.388l.731.492a5.122,5.122,0,0,1,1.388,7.108Zm35.5-2.37a5.087,5.087,0,0,1-2.166,3.267l-.73.492a5.119,5.119,0,0,1-7.108-1.388l-2.534-3.764a2.345,2.345,0,0,0-3.89,0l-2.534,3.764a5.119,5.119,0,0,1-7.108,1.388l-.731-.492a5.122,5.122,0,0,1-1.388-7.108l9.1-13.513a5.121,5.121,0,0,1,4.255-2.262c.081,0,.163,0,.243.006h.222c.081,0,.163-.006.243-.006a5.12,5.12,0,0,1,4.255,2.262l9.1,13.513a5.088,5.088,0,0,1,.771,3.84Z" fill="#8a81c0"/>
      </g>
      <g id="Group_23" data-name="Group 23" transform="translate(160.261 236.612) rotate(-1)">
        <path id="Path_79-2" data-name="Path 79" d="M49.113,16.81,40.016,3.3a7.459,7.459,0,0,0-6.2-3.3q-.177,0-.354.008C33.344,0,33.225,0,33.107,0a7.458,7.458,0,0,0-6.2,3.3L24.645,6.658a7.442,7.442,0,0,0-3.18-4.893l-.731-.492A7.464,7.464,0,0,0,10.371,3.3l-9.1,13.51A7.466,7.466,0,0,0,3.3,27.173l.731.492a7.464,7.464,0,0,0,10.363-2.024l2.263-3.361a7.442,7.442,0,0,0,3.18,4.893l.731.492a7.464,7.464,0,0,0,10.363-2.024l2.534-3.764L36,25.641a7.464,7.464,0,0,0,10.363,2.024l.731-.492A7.466,7.466,0,0,0,49.113,16.81ZM12.446,24.332A5.119,5.119,0,0,1,5.337,25.72l-.731-.492A5.127,5.127,0,0,1,3.219,18.12l9.1-13.513a5.119,5.119,0,0,1,7.108-1.388l.731.492a5.122,5.122,0,0,1,1.388,7.108Zm35.5-2.37a5.087,5.087,0,0,1-2.166,3.267l-.73.492a5.119,5.119,0,0,1-7.108-1.388l-2.534-3.764a2.345,2.345,0,0,0-3.89,0l-2.534,3.764a5.119,5.119,0,0,1-7.108,1.388l-.731-.492a5.122,5.122,0,0,1-1.388-7.108l9.1-13.513a5.121,5.121,0,0,1,4.255-2.262c.081,0,.163,0,.243.006h.222c.081,0,.163-.006.243-.006a5.12,5.12,0,0,1,4.255,2.262l9.1,13.513a5.088,5.088,0,0,1,.771,3.84Z" fill="#8a81c0"/>
      </g>
      <g id="Group_22" data-name="Group 22" transform="translate(80.2 121.541) rotate(-1)">
        <path id="Path_79-3" data-name="Path 79" d="M49.113,16.81,40.016,3.3a7.459,7.459,0,0,0-6.2-3.3q-.177,0-.354.008C33.344,0,33.225,0,33.107,0a7.458,7.458,0,0,0-6.2,3.3L24.645,6.658a7.442,7.442,0,0,0-3.18-4.893l-.731-.492A7.464,7.464,0,0,0,10.371,3.3l-9.1,13.51A7.466,7.466,0,0,0,3.3,27.173l.731.492a7.464,7.464,0,0,0,10.363-2.024l2.263-3.361a7.442,7.442,0,0,0,3.18,4.893l.731.492a7.464,7.464,0,0,0,10.363-2.024l2.534-3.764L36,25.641a7.464,7.464,0,0,0,10.363,2.024l.731-.492A7.466,7.466,0,0,0,49.113,16.81ZM12.446,24.332A5.119,5.119,0,0,1,5.337,25.72l-.731-.492A5.127,5.127,0,0,1,3.219,18.12l9.1-13.513a5.119,5.119,0,0,1,7.108-1.388l.731.492a5.122,5.122,0,0,1,1.388,7.108Zm35.5-2.37a5.087,5.087,0,0,1-2.166,3.267l-.73.492a5.119,5.119,0,0,1-7.108-1.388l-2.534-3.764a2.345,2.345,0,0,0-3.89,0l-2.534,3.764a5.119,5.119,0,0,1-7.108,1.388l-.731-.492a5.122,5.122,0,0,1-1.388-7.108l9.1-13.513a5.121,5.121,0,0,1,4.255-2.262c.081,0,.163,0,.243.006h.222c.081,0,.163-.006.243-.006a5.12,5.12,0,0,1,4.255,2.262l9.1,13.513a5.088,5.088,0,0,1,.771,3.84Z" fill="#8a81c0"/>
      </g>
      <g id="Group_24" data-name="Group 24" transform="translate(240.461 121.541) rotate(-1)">
        <path id="Path_79-4" data-name="Path 79" d="M49.113,16.81,40.016,3.3a7.459,7.459,0,0,0-6.2-3.3q-.177,0-.354.008C33.344,0,33.225,0,33.107,0a7.458,7.458,0,0,0-6.2,3.3L24.645,6.658a7.442,7.442,0,0,0-3.18-4.893l-.731-.492A7.464,7.464,0,0,0,10.371,3.3l-9.1,13.51A7.466,7.466,0,0,0,3.3,27.173l.731.492a7.464,7.464,0,0,0,10.363-2.024l2.263-3.361a7.442,7.442,0,0,0,3.18,4.893l.731.492a7.464,7.464,0,0,0,10.363-2.024l2.534-3.764L36,25.641a7.464,7.464,0,0,0,10.363,2.024l.731-.492A7.466,7.466,0,0,0,49.113,16.81ZM12.446,24.332A5.119,5.119,0,0,1,5.337,25.72l-.731-.492A5.127,5.127,0,0,1,3.219,18.12l9.1-13.513a5.119,5.119,0,0,1,7.108-1.388l.731.492a5.122,5.122,0,0,1,1.388,7.108Zm35.5-2.37a5.087,5.087,0,0,1-2.166,3.267l-.73.492a5.119,5.119,0,0,1-7.108-1.388l-2.534-3.764a2.345,2.345,0,0,0-3.89,0l-2.534,3.764a5.119,5.119,0,0,1-7.108,1.388l-.731-.492a5.122,5.122,0,0,1-1.388-7.108l9.1-13.513a5.121,5.121,0,0,1,4.255-2.262c.081,0,.163,0,.243.006h.222c.081,0,.163-.006.243-.006a5.12,5.12,0,0,1,4.255,2.262l9.1,13.513a5.088,5.088,0,0,1,.771,3.84Z" fill="#8a81c0"/>
      </g>
      <g id="stethoscope_1_" data-name="stethoscope (1)" transform="translate(5.194 55.905)">
        <path id="Path_77" data-name="Path 77" d="M39.339,24.483a6.515,6.515,0,0,0-6.546,5.528H23.657V25.174A3.323,3.323,0,0,0,25.726,23.7L36.389,6.438A3.065,3.065,0,0,0,36.418,3.2,3.355,3.355,0,0,0,33.5,1.58H31.621A2.9,2.9,0,0,0,29.022,0C27.7,0,24.483.969,24.483,2.764S27.7,5.528,29.022,5.528a2.846,2.846,0,0,0,2.847-2.369H33.5a1.707,1.707,0,0,1,1.487.828,1.56,1.56,0,0,1-.015,1.647L24.3,22.891a1.753,1.753,0,0,1-2.951-.008L10.393,5.633a1.559,1.559,0,0,1-.015-1.646,1.709,1.709,0,0,1,1.487-.828H13.8a2.847,2.847,0,0,0,2.847,2.369c1.317,0,4.539-.969,4.539-2.764S17.959,0,16.642,0a2.9,2.9,0,0,0-2.6,1.58H11.865A3.355,3.355,0,0,0,8.943,3.2a3.067,3.067,0,0,0,.034,3.24L19.939,23.7a3.318,3.318,0,0,0,2.067,1.478v4.837H14.579A8.9,8.9,0,0,0,5.5,38.7a8.9,8.9,0,0,0,9.079,8.688A8.9,8.9,0,0,0,23.657,38.7V31.591h9.136a6.623,6.623,0,0,0,13.148-.79,6.473,6.473,0,0,0-6.6-6.318ZM29.022,3.949c-1.018,0-2.771-.781-2.887-1.185.116-.4,1.869-1.185,2.887-1.185A1.214,1.214,0,0,1,30.26,2.764,1.214,1.214,0,0,1,29.022,3.949ZM16.642,1.58c1.018,0,2.771.781,2.887,1.185-.116.4-1.869,1.185-2.887,1.185A1.214,1.214,0,0,1,15.4,2.764,1.214,1.214,0,0,1,16.642,1.58ZM22.007,38.7a7.282,7.282,0,0,1-7.428,7.108,7.115,7.115,0,1,1,0-14.216h7.428Zm17.332-3.16a4.743,4.743,0,1,1,4.952-4.74,4.854,4.854,0,0,1-4.952,4.74Z" transform="translate(-5.5)" fill="#8a81c0"/>
        <path id="Path_78" data-name="Path 78" d="M45.16,35a2.66,2.66,0,1,0,2.66,2.66A2.66,2.66,0,0,0,45.16,35Zm0,3.99a1.33,1.33,0,1,1,1.33-1.33,1.33,1.33,0,0,1-1.33,1.33Z" transform="translate(-10.038 -6.685)" fill="#8a81c0"/>
      </g>
      <g id="stethoscope_1_2" data-name="stethoscope (1)" transform="translate(165.455 55.905)">
        <path id="Path_77-2" data-name="Path 77" d="M39.339,24.483a6.515,6.515,0,0,0-6.546,5.528H23.657V25.174A3.323,3.323,0,0,0,25.726,23.7L36.389,6.438A3.065,3.065,0,0,0,36.418,3.2,3.355,3.355,0,0,0,33.5,1.58H31.621A2.9,2.9,0,0,0,29.022,0C27.7,0,24.483.969,24.483,2.764S27.7,5.528,29.022,5.528a2.846,2.846,0,0,0,2.847-2.369H33.5a1.707,1.707,0,0,1,1.487.828,1.56,1.56,0,0,1-.015,1.647L24.3,22.891a1.753,1.753,0,0,1-2.951-.008L10.393,5.633a1.559,1.559,0,0,1-.015-1.646,1.709,1.709,0,0,1,1.487-.828H13.8a2.847,2.847,0,0,0,2.847,2.369c1.317,0,4.539-.969,4.539-2.764S17.959,0,16.642,0a2.9,2.9,0,0,0-2.6,1.58H11.865A3.355,3.355,0,0,0,8.943,3.2a3.067,3.067,0,0,0,.034,3.24L19.939,23.7a3.318,3.318,0,0,0,2.067,1.478v4.837H14.579A8.9,8.9,0,0,0,5.5,38.7a8.9,8.9,0,0,0,9.079,8.688A8.9,8.9,0,0,0,23.657,38.7V31.591h9.136a6.623,6.623,0,0,0,13.148-.79,6.473,6.473,0,0,0-6.6-6.318ZM29.022,3.949c-1.018,0-2.771-.781-2.887-1.185.116-.4,1.869-1.185,2.887-1.185A1.214,1.214,0,0,1,30.26,2.764,1.214,1.214,0,0,1,29.022,3.949ZM16.642,1.58c1.018,0,2.771.781,2.887,1.185-.116.4-1.869,1.185-2.887,1.185A1.214,1.214,0,0,1,15.4,2.764,1.214,1.214,0,0,1,16.642,1.58ZM22.007,38.7a7.282,7.282,0,0,1-7.428,7.108,7.115,7.115,0,1,1,0-14.216h7.428Zm17.332-3.16a4.743,4.743,0,1,1,4.952-4.74,4.854,4.854,0,0,1-4.952,4.74Z" transform="translate(-5.5)" fill="#8a81c0"/>
        <path id="Path_78-2" data-name="Path 78" d="M45.16,35a2.66,2.66,0,1,0,2.66,2.66A2.66,2.66,0,0,0,45.16,35Zm0,3.99a1.33,1.33,0,1,1,1.33-1.33,1.33,1.33,0,0,1-1.33,1.33Z" transform="translate(-10.038 -6.685)" fill="#8a81c0"/>
      </g>
      <g id="stethoscope_1_3" data-name="stethoscope (1)" transform="translate(85.324 169.113)">
        <path id="Path_77-3" data-name="Path 77" d="M39.339,24.483a6.515,6.515,0,0,0-6.546,5.528H23.657V25.174A3.323,3.323,0,0,0,25.726,23.7L36.389,6.438A3.065,3.065,0,0,0,36.418,3.2,3.355,3.355,0,0,0,33.5,1.58H31.621A2.9,2.9,0,0,0,29.022,0C27.7,0,24.483.969,24.483,2.764S27.7,5.528,29.022,5.528a2.846,2.846,0,0,0,2.847-2.369H33.5a1.707,1.707,0,0,1,1.487.828,1.56,1.56,0,0,1-.015,1.647L24.3,22.891a1.753,1.753,0,0,1-2.951-.008L10.393,5.633a1.559,1.559,0,0,1-.015-1.646,1.709,1.709,0,0,1,1.487-.828H13.8a2.847,2.847,0,0,0,2.847,2.369c1.317,0,4.539-.969,4.539-2.764S17.959,0,16.642,0a2.9,2.9,0,0,0-2.6,1.58H11.865A3.355,3.355,0,0,0,8.943,3.2a3.067,3.067,0,0,0,.034,3.24L19.939,23.7a3.318,3.318,0,0,0,2.067,1.478v4.837H14.579A8.9,8.9,0,0,0,5.5,38.7a8.9,8.9,0,0,0,9.079,8.688A8.9,8.9,0,0,0,23.657,38.7V31.591h9.136a6.623,6.623,0,0,0,13.148-.79,6.473,6.473,0,0,0-6.6-6.318ZM29.022,3.949c-1.018,0-2.771-.781-2.887-1.185.116-.4,1.869-1.185,2.887-1.185A1.214,1.214,0,0,1,30.26,2.764,1.214,1.214,0,0,1,29.022,3.949ZM16.642,1.58c1.018,0,2.771.781,2.887,1.185-.116.4-1.869,1.185-2.887,1.185A1.214,1.214,0,0,1,15.4,2.764,1.214,1.214,0,0,1,16.642,1.58ZM22.007,38.7a7.282,7.282,0,0,1-7.428,7.108,7.115,7.115,0,1,1,0-14.216h7.428Zm17.332-3.16a4.743,4.743,0,1,1,4.952-4.74,4.854,4.854,0,0,1-4.952,4.74Z" transform="translate(-5.5)" fill="#8a81c0"/>
        <path id="Path_78-3" data-name="Path 78" d="M45.16,35a2.66,2.66,0,1,0,2.66,2.66A2.66,2.66,0,0,0,45.16,35Zm0,3.99a1.33,1.33,0,1,1,1.33-1.33,1.33,1.33,0,0,1-1.33,1.33Z" transform="translate(-10.038 -6.685)" fill="#8a81c0"/>
      </g>
      <g id="stethoscope_1_4" data-name="stethoscope (1)" transform="translate(245.585 169.113)">
        <path id="Path_77-4" data-name="Path 77" d="M39.339,24.483a6.515,6.515,0,0,0-6.546,5.528H23.657V25.174A3.323,3.323,0,0,0,25.726,23.7L36.389,6.438A3.065,3.065,0,0,0,36.418,3.2,3.355,3.355,0,0,0,33.5,1.58H31.621A2.9,2.9,0,0,0,29.022,0C27.7,0,24.483.969,24.483,2.764S27.7,5.528,29.022,5.528a2.846,2.846,0,0,0,2.847-2.369H33.5a1.707,1.707,0,0,1,1.487.828,1.56,1.56,0,0,1-.015,1.647L24.3,22.891a1.753,1.753,0,0,1-2.951-.008L10.393,5.633a1.559,1.559,0,0,1-.015-1.646,1.709,1.709,0,0,1,1.487-.828H13.8a2.847,2.847,0,0,0,2.847,2.369c1.317,0,4.539-.969,4.539-2.764S17.959,0,16.642,0a2.9,2.9,0,0,0-2.6,1.58H11.865A3.355,3.355,0,0,0,8.943,3.2a3.067,3.067,0,0,0,.034,3.24L19.939,23.7a3.318,3.318,0,0,0,2.067,1.478v4.837H14.579A8.9,8.9,0,0,0,5.5,38.7a8.9,8.9,0,0,0,9.079,8.688A8.9,8.9,0,0,0,23.657,38.7V31.591h9.136a6.623,6.623,0,0,0,13.148-.79,6.473,6.473,0,0,0-6.6-6.318ZM29.022,3.949c-1.018,0-2.771-.781-2.887-1.185.116-.4,1.869-1.185,2.887-1.185A1.214,1.214,0,0,1,30.26,2.764,1.214,1.214,0,0,1,29.022,3.949ZM16.642,1.58c1.018,0,2.771.781,2.887,1.185-.116.4-1.869,1.185-2.887,1.185A1.214,1.214,0,0,1,15.4,2.764,1.214,1.214,0,0,1,16.642,1.58ZM22.007,38.7a7.282,7.282,0,0,1-7.428,7.108,7.115,7.115,0,1,1,0-14.216h7.428Zm17.332-3.16a4.743,4.743,0,1,1,4.952-4.74,4.854,4.854,0,0,1-4.952,4.74Z" transform="translate(-5.5)" fill="#8a81c0"/>
        <path id="Path_78-4" data-name="Path 78" d="M45.16,35a2.66,2.66,0,1,0,2.66,2.66A2.66,2.66,0,0,0,45.16,35Zm0,3.99a1.33,1.33,0,1,1,1.33-1.33,1.33,1.33,0,0,1-1.33,1.33Z" transform="translate(-10.038 -6.685)" fill="#8a81c0"/>
      </g>
      <g id="apple" transform="translate(7.057 122.059)">
        <g id="Group_12" data-name="Group 12">
          <path id="Path_80" data-name="Path 80" d="M77.466,24.989A18.26,18.26,0,0,0,72.5,15.675a8.429,8.429,0,0,0-3.269-1.97,8.005,8.005,0,0,0-3.806-.4,11.135,11.135,0,0,0-2.776.851,9.682,9.682,0,0,1-2.015.672l.09-5.866a4.2,4.2,0,0,0-.269-3.9,9.439,9.439,0,0,0-3.4-3.538h-.09A9.675,9.675,0,0,0,52.21,0a4.176,4.176,0,0,0-3.762,1.7c-.045.045-.045.09-.09.134a4.235,4.235,0,0,0,.134,4.12A9.682,9.682,0,0,0,51.941,9.54a9.675,9.675,0,0,0,4.747,1.523,5.775,5.775,0,0,0,1.791-.269l.09,3.985a9.682,9.682,0,0,1-2.015-.672,10.088,10.088,0,0,0-2.776-.851,8.609,8.609,0,0,0-3.806.4A8.429,8.429,0,0,0,46.7,15.63a18.631,18.631,0,0,0-2.239,2.732,16.938,16.938,0,0,0-1.657,3.09A18.359,18.359,0,0,0,41.729,32.2a18.087,18.087,0,0,0,7.7,11.553,16.937,16.937,0,0,0,3.09,1.657c1.567.672,3,.134,4.523-.4a7.886,7.886,0,0,1,2.552-.627,7.886,7.886,0,0,1,2.552.627c1.523.537,2.955,1.075,4.523.4a17.982,17.982,0,0,0,8.06-6.627,16.938,16.938,0,0,0,1.657-3.09,18.567,18.567,0,0,0,1.08-3.492,19.529,19.529,0,0,0,.358-3.627,13.717,13.717,0,0,0-.358-3.584ZM56.822,8.868a6.969,6.969,0,0,1-3.627-1.209,7.4,7.4,0,0,1-2.687-2.732,2.33,2.33,0,0,1-.224-2.06c0-.045.045-.045.045-.09a2.207,2.207,0,0,1,1.926-.716,7.3,7.3,0,0,1,3.627,1.164c.045,0,.045.045.09.045A7.273,7.273,0,0,1,58.613,6a2.17,2.17,0,0,1,.179,2.06A2.157,2.157,0,0,1,56.822,8.868ZM75.406,31.8a16.049,16.049,0,0,1-2.418,5.777,20.209,20.209,0,0,1-1.97,2.418,14.964,14.964,0,0,1-2.418,1.97,16.1,16.1,0,0,1-2.732,1.478c-.806.358-1.881-.045-3-.448A9.968,9.968,0,0,0,59.6,42.23a9.968,9.968,0,0,0-3.269.761,4.709,4.709,0,0,1-3,.448A16.1,16.1,0,0,1,50.6,41.961a20.209,20.209,0,0,1-2.418-1.97,14.964,14.964,0,0,1-1.97-2.418,16.1,16.1,0,0,1-1.478-2.732,18.4,18.4,0,0,1-.94-3.045,15.148,15.148,0,0,1-.313-3.224,15.148,15.148,0,0,1,.313-3.224,16.049,16.049,0,0,1,2.418-5.777,20.21,20.21,0,0,1,1.97-2.418,6.47,6.47,0,0,1,2.463-1.478,6.245,6.245,0,0,1,2.821-.313,8.675,8.675,0,0,1,2.239.716,10.175,10.175,0,0,0,3.9.94,10.175,10.175,0,0,0,3.9-.94,8.674,8.674,0,0,1,2.239-.716,6.181,6.181,0,0,1,2.821.313,6.256,6.256,0,0,1,2.463,1.478A14.964,14.964,0,0,1,73,19.571,16.1,16.1,0,0,1,74.466,22.3a18.4,18.4,0,0,1,.94,3.045,15.148,15.148,0,0,1,.313,3.224,18.741,18.741,0,0,1-.313,3.231Z" transform="translate(-41.373)" fill="#8a81c0"/>
        </g>
      </g>
      <g id="apple-2" data-name="apple" transform="translate(167.318 122.059)">
        <g id="Group_12-2" data-name="Group 12">
          <path id="Path_80-2" data-name="Path 80" d="M77.466,24.989A18.26,18.26,0,0,0,72.5,15.675a8.429,8.429,0,0,0-3.269-1.97,8.005,8.005,0,0,0-3.806-.4,11.135,11.135,0,0,0-2.776.851,9.682,9.682,0,0,1-2.015.672l.09-5.866a4.2,4.2,0,0,0-.269-3.9,9.439,9.439,0,0,0-3.4-3.538h-.09A9.675,9.675,0,0,0,52.21,0a4.176,4.176,0,0,0-3.762,1.7c-.045.045-.045.09-.09.134a4.235,4.235,0,0,0,.134,4.12A9.682,9.682,0,0,0,51.941,9.54a9.675,9.675,0,0,0,4.747,1.523,5.775,5.775,0,0,0,1.791-.269l.09,3.985a9.682,9.682,0,0,1-2.015-.672,10.088,10.088,0,0,0-2.776-.851,8.609,8.609,0,0,0-3.806.4A8.429,8.429,0,0,0,46.7,15.63a18.631,18.631,0,0,0-2.239,2.732,16.938,16.938,0,0,0-1.657,3.09A18.359,18.359,0,0,0,41.729,32.2a18.087,18.087,0,0,0,7.7,11.553,16.937,16.937,0,0,0,3.09,1.657c1.567.672,3,.134,4.523-.4a7.886,7.886,0,0,1,2.552-.627,7.886,7.886,0,0,1,2.552.627c1.523.537,2.955,1.075,4.523.4a17.982,17.982,0,0,0,8.06-6.627,16.938,16.938,0,0,0,1.657-3.09,18.567,18.567,0,0,0,1.08-3.492,19.529,19.529,0,0,0,.358-3.627,13.717,13.717,0,0,0-.358-3.584ZM56.822,8.868a6.969,6.969,0,0,1-3.627-1.209,7.4,7.4,0,0,1-2.687-2.732,2.33,2.33,0,0,1-.224-2.06c0-.045.045-.045.045-.09a2.207,2.207,0,0,1,1.926-.716,7.3,7.3,0,0,1,3.627,1.164c.045,0,.045.045.09.045A7.273,7.273,0,0,1,58.613,6a2.17,2.17,0,0,1,.179,2.06A2.157,2.157,0,0,1,56.822,8.868ZM75.406,31.8a16.049,16.049,0,0,1-2.418,5.777,20.209,20.209,0,0,1-1.97,2.418,14.964,14.964,0,0,1-2.418,1.97,16.1,16.1,0,0,1-2.732,1.478c-.806.358-1.881-.045-3-.448A9.968,9.968,0,0,0,59.6,42.23a9.968,9.968,0,0,0-3.269.761,4.709,4.709,0,0,1-3,.448A16.1,16.1,0,0,1,50.6,41.961a20.209,20.209,0,0,1-2.418-1.97,14.964,14.964,0,0,1-1.97-2.418,16.1,16.1,0,0,1-1.478-2.732,18.4,18.4,0,0,1-.94-3.045,15.148,15.148,0,0,1-.313-3.224,15.148,15.148,0,0,1,.313-3.224,16.049,16.049,0,0,1,2.418-5.777,20.21,20.21,0,0,1,1.97-2.418,6.47,6.47,0,0,1,2.463-1.478,6.245,6.245,0,0,1,2.821-.313,8.675,8.675,0,0,1,2.239.716,10.175,10.175,0,0,0,3.9.94,10.175,10.175,0,0,0,3.9-.94,8.674,8.674,0,0,1,2.239-.716,6.181,6.181,0,0,1,2.821.313,6.256,6.256,0,0,1,2.463,1.478A14.964,14.964,0,0,1,73,19.571,16.1,16.1,0,0,1,74.466,22.3a18.4,18.4,0,0,1,.94,3.045,15.148,15.148,0,0,1,.313,3.224,18.741,18.741,0,0,1-.313,3.231Z" transform="translate(-41.373)" fill="#8a81c0"/>
        </g>
      </g>
      <g id="apple-3" data-name="apple" transform="translate(87.188)">
        <g id="Group_12-3" data-name="Group 12">
          <path id="Path_80-3" data-name="Path 80" d="M77.466,24.989A18.26,18.26,0,0,0,72.5,15.675a8.429,8.429,0,0,0-3.269-1.97,8.005,8.005,0,0,0-3.806-.4,11.135,11.135,0,0,0-2.776.851,9.682,9.682,0,0,1-2.015.672l.09-5.866a4.2,4.2,0,0,0-.269-3.9,9.439,9.439,0,0,0-3.4-3.538h-.09A9.675,9.675,0,0,0,52.21,0a4.176,4.176,0,0,0-3.762,1.7c-.045.045-.045.09-.09.134a4.235,4.235,0,0,0,.134,4.12A9.682,9.682,0,0,0,51.941,9.54a9.675,9.675,0,0,0,4.747,1.523,5.775,5.775,0,0,0,1.791-.269l.09,3.985a9.682,9.682,0,0,1-2.015-.672,10.088,10.088,0,0,0-2.776-.851,8.609,8.609,0,0,0-3.806.4A8.429,8.429,0,0,0,46.7,15.63a18.631,18.631,0,0,0-2.239,2.732,16.938,16.938,0,0,0-1.657,3.09A18.359,18.359,0,0,0,41.729,32.2a18.087,18.087,0,0,0,7.7,11.553,16.937,16.937,0,0,0,3.09,1.657c1.567.672,3,.134,4.523-.4a7.886,7.886,0,0,1,2.552-.627,7.886,7.886,0,0,1,2.552.627c1.523.537,2.955,1.075,4.523.4a17.982,17.982,0,0,0,8.06-6.627,16.938,16.938,0,0,0,1.657-3.09,18.567,18.567,0,0,0,1.08-3.492,19.529,19.529,0,0,0,.358-3.627,13.717,13.717,0,0,0-.358-3.584ZM56.822,8.868a6.969,6.969,0,0,1-3.627-1.209,7.4,7.4,0,0,1-2.687-2.732,2.33,2.33,0,0,1-.224-2.06c0-.045.045-.045.045-.09a2.207,2.207,0,0,1,1.926-.716,7.3,7.3,0,0,1,3.627,1.164c.045,0,.045.045.09.045A7.273,7.273,0,0,1,58.613,6a2.17,2.17,0,0,1,.179,2.06A2.157,2.157,0,0,1,56.822,8.868ZM75.406,31.8a16.049,16.049,0,0,1-2.418,5.777,20.209,20.209,0,0,1-1.97,2.418,14.964,14.964,0,0,1-2.418,1.97,16.1,16.1,0,0,1-2.732,1.478c-.806.358-1.881-.045-3-.448A9.968,9.968,0,0,0,59.6,42.23a9.968,9.968,0,0,0-3.269.761,4.709,4.709,0,0,1-3,.448A16.1,16.1,0,0,1,50.6,41.961a20.209,20.209,0,0,1-2.418-1.97,14.964,14.964,0,0,1-1.97-2.418,16.1,16.1,0,0,1-1.478-2.732,18.4,18.4,0,0,1-.94-3.045,15.148,15.148,0,0,1-.313-3.224,15.148,15.148,0,0,1,.313-3.224,16.049,16.049,0,0,1,2.418-5.777,20.21,20.21,0,0,1,1.97-2.418,6.47,6.47,0,0,1,2.463-1.478,6.245,6.245,0,0,1,2.821-.313,8.675,8.675,0,0,1,2.239.716,10.175,10.175,0,0,0,3.9.94,10.175,10.175,0,0,0,3.9-.94,8.674,8.674,0,0,1,2.239-.716,6.181,6.181,0,0,1,2.821.313,6.256,6.256,0,0,1,2.463,1.478A14.964,14.964,0,0,1,73,19.571,16.1,16.1,0,0,1,74.466,22.3a18.4,18.4,0,0,1,.94,3.045,15.148,15.148,0,0,1,.313,3.224,18.741,18.741,0,0,1-.313,3.231Z" transform="translate(-41.373)" fill="#8a81c0"/>
        </g>
      </g>
      <g id="apple-4" data-name="apple" transform="translate(247.449)">
        <g id="Group_12-4" data-name="Group 12">
          <path id="Path_80-4" data-name="Path 80" d="M77.466,24.989A18.26,18.26,0,0,0,72.5,15.675a8.429,8.429,0,0,0-3.269-1.97,8.005,8.005,0,0,0-3.806-.4,11.135,11.135,0,0,0-2.776.851,9.682,9.682,0,0,1-2.015.672l.09-5.866a4.2,4.2,0,0,0-.269-3.9,9.439,9.439,0,0,0-3.4-3.538h-.09A9.675,9.675,0,0,0,52.21,0a4.176,4.176,0,0,0-3.762,1.7c-.045.045-.045.09-.09.134a4.235,4.235,0,0,0,.134,4.12A9.682,9.682,0,0,0,51.941,9.54a9.675,9.675,0,0,0,4.747,1.523,5.775,5.775,0,0,0,1.791-.269l.09,3.985a9.682,9.682,0,0,1-2.015-.672,10.088,10.088,0,0,0-2.776-.851,8.609,8.609,0,0,0-3.806.4A8.429,8.429,0,0,0,46.7,15.63a18.631,18.631,0,0,0-2.239,2.732,16.938,16.938,0,0,0-1.657,3.09A18.359,18.359,0,0,0,41.729,32.2a18.087,18.087,0,0,0,7.7,11.553,16.937,16.937,0,0,0,3.09,1.657c1.567.672,3,.134,4.523-.4a7.886,7.886,0,0,1,2.552-.627,7.886,7.886,0,0,1,2.552.627c1.523.537,2.955,1.075,4.523.4a17.982,17.982,0,0,0,8.06-6.627,16.938,16.938,0,0,0,1.657-3.09,18.567,18.567,0,0,0,1.08-3.492,19.529,19.529,0,0,0,.358-3.627,13.717,13.717,0,0,0-.358-3.584ZM56.822,8.868a6.969,6.969,0,0,1-3.627-1.209,7.4,7.4,0,0,1-2.687-2.732,2.33,2.33,0,0,1-.224-2.06c0-.045.045-.045.045-.09a2.207,2.207,0,0,1,1.926-.716,7.3,7.3,0,0,1,3.627,1.164c.045,0,.045.045.09.045A7.273,7.273,0,0,1,58.613,6a2.17,2.17,0,0,1,.179,2.06A2.157,2.157,0,0,1,56.822,8.868ZM75.406,31.8a16.049,16.049,0,0,1-2.418,5.777,20.209,20.209,0,0,1-1.97,2.418,14.964,14.964,0,0,1-2.418,1.97,16.1,16.1,0,0,1-2.732,1.478c-.806.358-1.881-.045-3-.448A9.968,9.968,0,0,0,59.6,42.23a9.968,9.968,0,0,0-3.269.761,4.709,4.709,0,0,1-3,.448A16.1,16.1,0,0,1,50.6,41.961a20.209,20.209,0,0,1-2.418-1.97,14.964,14.964,0,0,1-1.97-2.418,16.1,16.1,0,0,1-1.478-2.732,18.4,18.4,0,0,1-.94-3.045,15.148,15.148,0,0,1-.313-3.224,15.148,15.148,0,0,1,.313-3.224,16.049,16.049,0,0,1,2.418-5.777,20.21,20.21,0,0,1,1.97-2.418,6.47,6.47,0,0,1,2.463-1.478,6.245,6.245,0,0,1,2.821-.313,8.675,8.675,0,0,1,2.239.716,10.175,10.175,0,0,0,3.9.94,10.175,10.175,0,0,0,3.9-.94,8.674,8.674,0,0,1,2.239-.716,6.181,6.181,0,0,1,2.821.313,6.256,6.256,0,0,1,2.463,1.478A14.964,14.964,0,0,1,73,19.571,16.1,16.1,0,0,1,74.466,22.3a18.4,18.4,0,0,1,.94,3.045,15.148,15.148,0,0,1,.313,3.224,18.741,18.741,0,0,1-.313,3.231Z" transform="translate(-41.373)" fill="#8a81c0"/>
        </g>
      </g>
      <g id="heart" transform="translate(5.194)">
        <g id="Group_13" data-name="Group 13">
          <path id="Path_81" data-name="Path 81" d="M39.671,35.435H34.444l3.213-4.027.129-.257a9.753,9.753,0,0,0,1.671-5.526,10.025,10.025,0,0,0-19.278-3.856A10.025,10.025,0,0,0,.9,25.625a9.853,9.853,0,0,0,1.67,5.526l.129.257,3.213,4.027H.771a.771.771,0,1,0,0,1.542H7.2L19.621,52.4a.75.75,0,0,0,1.2,0L33.244,36.978H39.67a.768.768,0,0,0,.771-.771.828.828,0,0,0-.77-.772ZM20.221,50.687,9.168,36.935h5.055a.747.747,0,0,0,.728-.514l1.2-3.727.514,7.5a.774.774,0,0,0,.643.685.751.751,0,0,0,.814-.471l1.285-3.213v2.956a.706.706,0,0,0,.643.728h.129a.834.834,0,0,0,.728-.514l2.956-8.482.3,4.327a.79.79,0,0,0,.771.728h6.383ZM32.473,35.435H25.619L25.1,28.11a.774.774,0,0,0-.643-.685.784.784,0,0,0-.814.514l-2.7,7.754V33.336a.737.737,0,0,0-.6-.728.756.756,0,0,0-.857.471l-1.5,3.77-.557-8.14a.774.774,0,0,0-.685-.685.754.754,0,0,0-.814.514l-2.271,6.9H7.926l-3.813-4.8c0-.043-.043-.086-.086-.129A8.474,8.474,0,1,1,19.45,25.668a.771.771,0,1,0,1.542,0,8.483,8.483,0,1,1,16.965,0,8.143,8.143,0,0,1-1.542,4.841c-.043.043-.043.086-.086.129Z" transform="translate(0 -15.6)" fill="#8a81c0"/>
        </g>
      </g>
      <g id="heart-2" data-name="heart" transform="translate(165.455)">
        <g id="Group_13-2" data-name="Group 13">
          <path id="Path_81-2" data-name="Path 81" d="M39.671,35.435H34.444l3.213-4.027.129-.257a9.753,9.753,0,0,0,1.671-5.526,10.025,10.025,0,0,0-19.278-3.856A10.025,10.025,0,0,0,.9,25.625a9.853,9.853,0,0,0,1.67,5.526l.129.257,3.213,4.027H.771a.771.771,0,1,0,0,1.542H7.2L19.621,52.4a.75.75,0,0,0,1.2,0L33.244,36.978H39.67a.768.768,0,0,0,.771-.771.828.828,0,0,0-.77-.772ZM20.221,50.687,9.168,36.935h5.055a.747.747,0,0,0,.728-.514l1.2-3.727.514,7.5a.774.774,0,0,0,.643.685.751.751,0,0,0,.814-.471l1.285-3.213v2.956a.706.706,0,0,0,.643.728h.129a.834.834,0,0,0,.728-.514l2.956-8.482.3,4.327a.79.79,0,0,0,.771.728h6.383ZM32.473,35.435H25.619L25.1,28.11a.774.774,0,0,0-.643-.685.784.784,0,0,0-.814.514l-2.7,7.754V33.336a.737.737,0,0,0-.6-.728.756.756,0,0,0-.857.471l-1.5,3.77-.557-8.14a.774.774,0,0,0-.685-.685.754.754,0,0,0-.814.514l-2.271,6.9H7.926l-3.813-4.8c0-.043-.043-.086-.086-.129A8.474,8.474,0,1,1,19.45,25.668a.771.771,0,1,0,1.542,0,8.483,8.483,0,1,1,16.965,0,8.143,8.143,0,0,1-1.542,4.841c-.043.043-.043.086-.086.129Z" transform="translate(0 -15.6)" fill="#8a81c0"/>
        </g>
      </g>
      <g id="heart-3" data-name="heart" transform="translate(85.325 64.757)">
        <g id="Group_13-3" data-name="Group 13">
          <path id="Path_81-3" data-name="Path 81" d="M39.671,35.435H34.444l3.213-4.027.129-.257a9.753,9.753,0,0,0,1.671-5.526,10.025,10.025,0,0,0-19.278-3.856A10.025,10.025,0,0,0,.9,25.625a9.853,9.853,0,0,0,1.67,5.526l.129.257,3.213,4.027H.771a.771.771,0,1,0,0,1.542H7.2L19.621,52.4a.75.75,0,0,0,1.2,0L33.244,36.978H39.67a.768.768,0,0,0,.771-.771.828.828,0,0,0-.77-.772ZM20.221,50.687,9.168,36.935h5.055a.747.747,0,0,0,.728-.514l1.2-3.727.514,7.5a.774.774,0,0,0,.643.685.751.751,0,0,0,.814-.471l1.285-3.213v2.956a.706.706,0,0,0,.643.728h.129a.834.834,0,0,0,.728-.514l2.956-8.482.3,4.327a.79.79,0,0,0,.771.728h6.383ZM32.473,35.435H25.619L25.1,28.11a.774.774,0,0,0-.643-.685.784.784,0,0,0-.814.514l-2.7,7.754V33.336a.737.737,0,0,0-.6-.728.756.756,0,0,0-.857.471l-1.5,3.77-.557-8.14a.774.774,0,0,0-.685-.685.754.754,0,0,0-.814.514l-2.271,6.9H7.926l-3.813-4.8c0-.043-.043-.086-.086-.129A8.474,8.474,0,1,1,19.45,25.668a.771.771,0,1,0,1.542,0,8.483,8.483,0,1,1,16.965,0,8.143,8.143,0,0,1-1.542,4.841c-.043.043-.043.086-.086.129Z" transform="translate(0 -15.6)" fill="#8a81c0"/>
        </g>
      </g>
      <g id="heart-4" data-name="heart" transform="translate(245.586 64.757)">
        <g id="Group_13-4" data-name="Group 13">
          <path id="Path_81-4" data-name="Path 81" d="M39.671,35.435H34.444l3.213-4.027.129-.257a9.753,9.753,0,0,0,1.671-5.526,10.025,10.025,0,0,0-19.278-3.856A10.025,10.025,0,0,0,.9,25.625a9.853,9.853,0,0,0,1.67,5.526l.129.257,3.213,4.027H.771a.771.771,0,1,0,0,1.542H7.2L19.621,52.4a.75.75,0,0,0,1.2,0L33.244,36.978H39.67a.768.768,0,0,0,.771-.771.828.828,0,0,0-.77-.772ZM20.221,50.687,9.168,36.935h5.055a.747.747,0,0,0,.728-.514l1.2-3.727.514,7.5a.774.774,0,0,0,.643.685.751.751,0,0,0,.814-.471l1.285-3.213v2.956a.706.706,0,0,0,.643.728h.129a.834.834,0,0,0,.728-.514l2.956-8.482.3,4.327a.79.79,0,0,0,.771.728h6.383ZM32.473,35.435H25.619L25.1,28.11a.774.774,0,0,0-.643-.685.784.784,0,0,0-.814.514l-2.7,7.754V33.336a.737.737,0,0,0-.6-.728.756.756,0,0,0-.857.471l-1.5,3.77-.557-8.14a.774.774,0,0,0-.685-.685.754.754,0,0,0-.814.514l-2.271,6.9H7.926l-3.813-4.8c0-.043-.043-.086-.086-.129A8.474,8.474,0,1,1,19.45,25.668a.771.771,0,1,0,1.542,0,8.483,8.483,0,1,1,16.965,0,8.143,8.143,0,0,1-1.542,4.841c-.043.043-.043.086-.086.129Z" transform="translate(0 -15.6)" fill="#8a81c0"/>
        </g>
      </g>
      <g id="cardiogram" transform="translate(6.591 186.816)">
        <g id="Group_15" data-name="Group 15" transform="translate(2.829 3.201)">
          <g id="Group_14" data-name="Group 14">
            <path id="Path_82" data-name="Path 82" d="M30.476,59.6a2.615,2.615,0,0,0-1.763.7,2.615,2.615,0,0,0-1.763-.7,2.544,2.544,0,0,0-2.55,2.551,2.661,2.661,0,0,0,.371,1.345.17.17,0,0,0,.046.139l3.2,3.943a.812.812,0,0,0,1.3,0l3.2-3.943c.046-.046.046-.093.093-.139a2.417,2.417,0,0,0,.417-1.345A2.544,2.544,0,0,0,30.476,59.6Zm.7,3.015a.045.045,0,0,1-.046.046l-2.5,3.108-2.5-3.108a.045.045,0,0,0-.046-.046.973.973,0,0,1-.186-.51,1.086,1.086,0,0,1,1.02-.928.93.93,0,0,1,.928.928.835.835,0,0,0,1.67,0,.928.928,0,1,1,1.855,0,.7.7,0,0,1-.2.51Z" transform="translate(-24.4 -59.6)" fill="#8a81c0"/>
          </g>
        </g>
        <g id="Group_17" data-name="Group 17">
          <g id="Group_16" data-name="Group 16">
            <path id="Path_83" data-name="Path 83" d="M36.087,32H1.623A1.613,1.613,0,0,0,0,33.623V60.666a1.613,1.613,0,0,0,1.623,1.623H36.087a1.613,1.613,0,0,0,1.623-1.623V33.623A1.613,1.613,0,0,0,36.087,32ZM1.623,33.623H36.041V48.281H26.718L25.976,40.3a.887.887,0,0,0-.7-.742.839.839,0,0,0-.881.464l-4.778,9.787v-3.8a.8.8,0,0,0-.6-.789.814.814,0,0,0-.928.371l-2.876,5.1L14.285,40.9a.831.831,0,0,0-1.577-.278L9.277,48.235H1.623ZM36.087,60.712H1.623V49.951H9.88a.826.826,0,0,0,.742-.464L12.988,44.2l.881,9.277a.838.838,0,0,0,.649.742A.78.78,0,0,0,15.4,53.8L18,49.162V53.43a.837.837,0,0,0,.649.789h.186a.826.826,0,0,0,.742-.464l5.01-10.344.557,5.8a.849.849,0,0,0,.835.742H36.087Z" transform="translate(0 -32)" fill="#8a81c0"/>
          </g>
        </g>
        <g id="Group_19" data-name="Group 19" transform="translate(26.671 23.1)">
          <g id="Group_18" data-name="Group 18">
            <path id="Path_84" data-name="Path 84" d="M235.01,231.2h-4.175a.831.831,0,0,0-.835.835.9.9,0,0,0,.835.835h4.175a.835.835,0,1,0,0-1.67Z" transform="translate(-230 -231.2)" fill="#8a81c0"/>
          </g>
        </g>
        <g id="Group_21" data-name="Group 21" transform="translate(26.718 26.3)">
          <g id="Group_20" data-name="Group 20">
            <path id="Path_85" data-name="Path 85" d="M235.41,258.8h-4.175a.835.835,0,0,0,0,1.67h4.175a.831.831,0,0,0,.835-.835.862.862,0,0,0-.835-.835Z" transform="translate(-230.4 -258.8)" fill="#8a81c0"/>
          </g>
        </g>
      </g>
      <g id="cardiogram-2" data-name="cardiogram" transform="translate(166.853 186.816)">
        <g id="Group_15-2" data-name="Group 15" transform="translate(2.829 3.201)">
          <g id="Group_14-2" data-name="Group 14">
            <path id="Path_82-2" data-name="Path 82" d="M30.476,59.6a2.615,2.615,0,0,0-1.763.7,2.615,2.615,0,0,0-1.763-.7,2.544,2.544,0,0,0-2.55,2.551,2.661,2.661,0,0,0,.371,1.345.17.17,0,0,0,.046.139l3.2,3.943a.812.812,0,0,0,1.3,0l3.2-3.943c.046-.046.046-.093.093-.139a2.417,2.417,0,0,0,.417-1.345A2.544,2.544,0,0,0,30.476,59.6Zm.7,3.015a.045.045,0,0,1-.046.046l-2.5,3.108-2.5-3.108a.045.045,0,0,0-.046-.046.973.973,0,0,1-.186-.51,1.086,1.086,0,0,1,1.02-.928.93.93,0,0,1,.928.928.835.835,0,0,0,1.67,0,.928.928,0,1,1,1.855,0,.7.7,0,0,1-.2.51Z" transform="translate(-24.4 -59.6)" fill="#8a81c0"/>
          </g>
        </g>
        <g id="Group_17-2" data-name="Group 17">
          <g id="Group_16-2" data-name="Group 16">
            <path id="Path_83-2" data-name="Path 83" d="M36.087,32H1.623A1.613,1.613,0,0,0,0,33.623V60.666a1.613,1.613,0,0,0,1.623,1.623H36.087a1.613,1.613,0,0,0,1.623-1.623V33.623A1.613,1.613,0,0,0,36.087,32ZM1.623,33.623H36.041V48.281H26.718L25.976,40.3a.887.887,0,0,0-.7-.742.839.839,0,0,0-.881.464l-4.778,9.787v-3.8a.8.8,0,0,0-.6-.789.814.814,0,0,0-.928.371l-2.876,5.1L14.285,40.9a.831.831,0,0,0-1.577-.278L9.277,48.235H1.623ZM36.087,60.712H1.623V49.951H9.88a.826.826,0,0,0,.742-.464L12.988,44.2l.881,9.277a.838.838,0,0,0,.649.742A.78.78,0,0,0,15.4,53.8L18,49.162V53.43a.837.837,0,0,0,.649.789h.186a.826.826,0,0,0,.742-.464l5.01-10.344.557,5.8a.849.849,0,0,0,.835.742H36.087Z" transform="translate(0 -32)" fill="#8a81c0"/>
          </g>
        </g>
        <g id="Group_19-2" data-name="Group 19" transform="translate(26.671 23.1)">
          <g id="Group_18-2" data-name="Group 18">
            <path id="Path_84-2" data-name="Path 84" d="M235.01,231.2h-4.175a.831.831,0,0,0-.835.835.9.9,0,0,0,.835.835h4.175a.835.835,0,1,0,0-1.67Z" transform="translate(-230 -231.2)" fill="#8a81c0"/>
          </g>
        </g>
        <g id="Group_21-2" data-name="Group 21" transform="translate(26.718 26.3)">
          <g id="Group_20-2" data-name="Group 20">
            <path id="Path_85-2" data-name="Path 85" d="M235.41,258.8h-4.175a.835.835,0,0,0,0,1.67h4.175a.831.831,0,0,0,.835-.835.862.862,0,0,0-.835-.835Z" transform="translate(-230.4 -258.8)" fill="#8a81c0"/>
          </g>
        </g>
      </g>
      <g id="cardiogram-3" data-name="cardiogram" transform="translate(86.722 235.267)">
        <g id="Group_15-3" data-name="Group 15" transform="translate(2.829 3.201)">
          <g id="Group_14-3" data-name="Group 14">
            <path id="Path_82-3" data-name="Path 82" d="M30.476,59.6a2.615,2.615,0,0,0-1.763.7,2.615,2.615,0,0,0-1.763-.7,2.544,2.544,0,0,0-2.55,2.551,2.661,2.661,0,0,0,.371,1.345.17.17,0,0,0,.046.139l3.2,3.943a.812.812,0,0,0,1.3,0l3.2-3.943c.046-.046.046-.093.093-.139a2.417,2.417,0,0,0,.417-1.345A2.544,2.544,0,0,0,30.476,59.6Zm.7,3.015a.045.045,0,0,1-.046.046l-2.5,3.108-2.5-3.108a.045.045,0,0,0-.046-.046.973.973,0,0,1-.186-.51,1.086,1.086,0,0,1,1.02-.928.93.93,0,0,1,.928.928.835.835,0,0,0,1.67,0,.928.928,0,1,1,1.855,0,.7.7,0,0,1-.2.51Z" transform="translate(-24.4 -59.6)" fill="#8a81c0"/>
          </g>
        </g>
        <g id="Group_17-3" data-name="Group 17">
          <g id="Group_16-3" data-name="Group 16">
            <path id="Path_83-3" data-name="Path 83" d="M36.087,32H1.623A1.613,1.613,0,0,0,0,33.623V60.666a1.613,1.613,0,0,0,1.623,1.623H36.087a1.613,1.613,0,0,0,1.623-1.623V33.623A1.613,1.613,0,0,0,36.087,32ZM1.623,33.623H36.041V48.281H26.718L25.976,40.3a.887.887,0,0,0-.7-.742.839.839,0,0,0-.881.464l-4.778,9.787v-3.8a.8.8,0,0,0-.6-.789.814.814,0,0,0-.928.371l-2.876,5.1L14.285,40.9a.831.831,0,0,0-1.577-.278L9.277,48.235H1.623ZM36.087,60.712H1.623V49.951H9.88a.826.826,0,0,0,.742-.464L12.988,44.2l.881,9.277a.838.838,0,0,0,.649.742A.78.78,0,0,0,15.4,53.8L18,49.162V53.43a.837.837,0,0,0,.649.789h.186a.826.826,0,0,0,.742-.464l5.01-10.344.557,5.8a.849.849,0,0,0,.835.742H36.087Z" transform="translate(0 -32)" fill="#8a81c0"/>
          </g>
        </g>
        <g id="Group_19-3" data-name="Group 19" transform="translate(26.671 23.1)">
          <g id="Group_18-3" data-name="Group 18">
            <path id="Path_84-3" data-name="Path 84" d="M235.01,231.2h-4.175a.831.831,0,0,0-.835.835.9.9,0,0,0,.835.835h4.175a.835.835,0,1,0,0-1.67Z" transform="translate(-230 -231.2)" fill="#8a81c0"/>
          </g>
        </g>
        <g id="Group_21-3" data-name="Group 21" transform="translate(26.718 26.3)">
          <g id="Group_20-3" data-name="Group 20">
            <path id="Path_85-3" data-name="Path 85" d="M235.41,258.8h-4.175a.835.835,0,0,0,0,1.67h4.175a.831.831,0,0,0,.835-.835.862.862,0,0,0-.835-.835Z" transform="translate(-230.4 -258.8)" fill="#8a81c0"/>
          </g>
        </g>
      </g>
      <g id="cardiogram-4" data-name="cardiogram" transform="translate(246.983 235.267)">
        <g id="Group_15-4" data-name="Group 15" transform="translate(2.829 3.201)">
          <g id="Group_14-4" data-name="Group 14">
            <path id="Path_82-4" data-name="Path 82" d="M30.476,59.6a2.615,2.615,0,0,0-1.763.7,2.615,2.615,0,0,0-1.763-.7,2.544,2.544,0,0,0-2.55,2.551,2.661,2.661,0,0,0,.371,1.345.17.17,0,0,0,.046.139l3.2,3.943a.812.812,0,0,0,1.3,0l3.2-3.943c.046-.046.046-.093.093-.139a2.417,2.417,0,0,0,.417-1.345A2.544,2.544,0,0,0,30.476,59.6Zm.7,3.015a.045.045,0,0,1-.046.046l-2.5,3.108-2.5-3.108a.045.045,0,0,0-.046-.046.973.973,0,0,1-.186-.51,1.086,1.086,0,0,1,1.02-.928.93.93,0,0,1,.928.928.835.835,0,0,0,1.67,0,.928.928,0,1,1,1.855,0,.7.7,0,0,1-.2.51Z" transform="translate(-24.4 -59.6)" fill="#8a81c0"/>
          </g>
        </g>
        <g id="Group_17-4" data-name="Group 17">
          <g id="Group_16-4" data-name="Group 16">
            <path id="Path_83-4" data-name="Path 83" d="M36.087,32H1.623A1.613,1.613,0,0,0,0,33.623V60.666a1.613,1.613,0,0,0,1.623,1.623H36.087a1.613,1.613,0,0,0,1.623-1.623V33.623A1.613,1.613,0,0,0,36.087,32ZM1.623,33.623H36.041V48.281H26.718L25.976,40.3a.887.887,0,0,0-.7-.742.839.839,0,0,0-.881.464l-4.778,9.787v-3.8a.8.8,0,0,0-.6-.789.814.814,0,0,0-.928.371l-2.876,5.1L14.285,40.9a.831.831,0,0,0-1.577-.278L9.277,48.235H1.623ZM36.087,60.712H1.623V49.951H9.88a.826.826,0,0,0,.742-.464L12.988,44.2l.881,9.277a.838.838,0,0,0,.649.742A.78.78,0,0,0,15.4,53.8L18,49.162V53.43a.837.837,0,0,0,.649.789h.186a.826.826,0,0,0,.742-.464l5.01-10.344.557,5.8a.849.849,0,0,0,.835.742H36.087Z" transform="translate(0 -32)" fill="#8a81c0"/>
          </g>
        </g>
        <g id="Group_19-4" data-name="Group 19" transform="translate(26.671 23.1)">
          <g id="Group_18-4" data-name="Group 18">
            <path id="Path_84-4" data-name="Path 84" d="M235.01,231.2h-4.175a.831.831,0,0,0-.835.835.9.9,0,0,0,.835.835h4.175a.835.835,0,1,0,0-1.67Z" transform="translate(-230 -231.2)" fill="#8a81c0"/>
          </g>
        </g>
        <g id="Group_21-4" data-name="Group 21" transform="translate(26.718 26.3)">
          <g id="Group_20-4" data-name="Group 20">
            <path id="Path_85-4" data-name="Path 85" d="M235.41,258.8h-4.175a.835.835,0,0,0,0,1.67h4.175a.831.831,0,0,0,.835-.835.862.862,0,0,0-.835-.835Z" transform="translate(-230.4 -258.8)" fill="#8a81c0"/>
          </g>
        </g>
      </g>
    </g>
  </g>
</svg>